<?xml version="1.0" encoding="UTF-8"?>
<svg version="1.1" xmlns="http://www.w3.org/2000/svg" width="816" height="306">
<path d="M0 0 C2.57866282 0.6298701 3.70080431 1.22910257 5.5078125 3.14453125 C7.66292582 7.09557233 7.94707314 9.14855476 7.3828125 13.58203125 C6.9909375 14.42765625 6.5990625 15.27328125 6.1953125 16.14453125 C5.09067549 18.65304008 5.09067549 18.65304008 6.3203125 21.45703125 C11.02013188 28.57796971 16.702891 32.98792164 24.3828125 36.58203125 C25.3521875 37.04996094 26.3215625 37.51789063 27.3203125 38 C35.97404057 41.78600603 43.09463035 42.16013387 52.3828125 41.58203125 C52.49496094 40.81632812 52.60710937 40.050625 52.72265625 39.26171875 C53.51492251 36.04577406 54.94130938 34.467274 57.5703125 32.4765625 C60.35349284 31.10296703 62.47818686 31.1977648 65.48046875 31.80859375 C69.08615761 33.2745617 70.37137638 35.25059017 72.3828125 38.58203125 C73.0078125 41.58203125 73.0078125 41.58203125 72.3828125 44.58203125 C68.54023864 50.13241571 68.54023864 50.13241571 65.3515625 51.37109375 C62.38777512 53.19405821 62.10584274 55.44042974 61.1328125 58.70703125 C60.79765625 59.80273438 60.4625 60.8984375 60.1171875 62.02734375 C59.75367188 63.29191406 59.75367188 63.29191406 59.3828125 64.58203125 C62.02911801 64.12629551 64.67493451 63.66810171 67.3203125 63.20703125 C68.09632813 63.07200195 68.87234375 62.93697266 69.671875 62.79785156 C73.77041648 62.07528625 77.83210875 61.29366173 81.8828125 60.33203125 C83.0378125 60.08453125 84.1928125 59.83703125 85.3828125 59.58203125 C87.0222154 61.22143415 86.51279088 63.08764728 86.515625 65.34765625 C86.51771973 66.36827148 86.51981445 67.38888672 86.52197266 68.44042969 C86.51496338 70.11927246 86.51496338 70.11927246 86.5078125 71.83203125 C86.50442871 72.98993164 86.50104492 74.14783203 86.49755859 75.34082031 C85.96054242 168.63176879 85.96054242 168.63176879 54.17529297 201.83691406 C44.67244841 211.08866194 33.2412504 218.72149051 21.3828125 224.58203125 C20.49158691 225.02804687 19.60036133 225.4740625 18.68212891 225.93359375 C15.6627667 227.42017129 12.62238564 228.85144271 9.5703125 230.26953125 C8.60335449 230.74092529 7.63639648 231.21231934 6.64013672 231.69799805 C1.95654096 233.79413871 -1.33204082 235.1676779 -6.34765625 233.54296875 C-7.78402427 232.91884311 -9.20832903 232.26599301 -10.6171875 231.58203125 C-11.87542878 231.08559642 -13.13578284 230.59447486 -14.3984375 230.109375 C-38.16564838 220.12442729 -62.02852566 204.78840282 -74.6171875 181.58203125 C-75.21015625 180.53789062 -75.803125 179.49375 -76.4140625 178.41796875 C-88.47371437 155.99938515 -90.54102974 129.36451667 -90.96875 104.328125 C-90.99190277 103.10545425 -91.01505554 101.88278351 -91.03890991 100.62306213 C-91.08621794 98.06083751 -91.13148827 95.49857451 -91.17480469 92.9362793 C-91.24252902 88.99968006 -91.32013524 85.06335459 -91.3984375 81.12695312 C-91.44330185 78.63152102 -91.48759341 76.13607853 -91.53125 73.640625 C-91.55514801 72.46052353 -91.57904602 71.28042206 -91.60366821 70.06455994 C-91.6205368 68.9790535 -91.6374054 67.89354706 -91.65478516 66.77514648 C-91.67175446 65.81793198 -91.68872375 64.86071747 -91.70620728 63.87449646 C-91.6171875 61.58203125 -91.6171875 61.58203125 -90.6171875 59.58203125 C-89.4828125 59.85015625 -88.3484375 60.11828125 -87.1796875 60.39453125 C-79.71297458 62.06313751 -72.15514477 63.28387558 -64.6171875 64.58203125 C-64.83375 63.89496094 -65.0503125 63.20789063 -65.2734375 62.5 C-65.551875 61.59894531 -65.8303125 60.69789062 -66.1171875 59.76953125 C-66.395625 58.87621094 -66.6740625 57.98289063 -66.9609375 57.0625 C-67.6171875 54.58203125 -67.6171875 54.58203125 -67.6171875 51.58203125 C-68.3596875 51.49953125 -69.1021875 51.41703125 -69.8671875 51.33203125 C-73.29176082 50.39805671 -74.51388566 49.43651232 -76.6171875 46.58203125 C-77.66540128 42.73858073 -78.01142759 40.54572926 -76.4921875 36.83203125 C-74.31095599 34.21455344 -72.78271819 32.87702108 -69.6171875 31.58203125 C-65.17364399 31.58203125 -63.18861985 32.13218025 -59.6796875 34.89453125 C-57.6171875 37.58203125 -57.6171875 37.58203125 -57.6171875 41.58203125 C-42.58485958 42.52944688 -29.60688129 39.24150216 -17.6171875 29.58203125 C-14.09053964 25.92295985 -10.6171875 21.8925224 -10.6171875 16.58203125 C-11.2664834 15.24015307 -11.93450612 13.90723628 -12.6171875 12.58203125 C-13.23600285 8.5155304 -12.76001619 6.8391229 -10.7421875 3.20703125 C-7.64005868 -0.14326788 -4.39946776 -0.2823539 0 0 Z M-5.4296875 35.33984375 C-6.1515625 36.12101562 -6.8734375 36.9021875 -7.6171875 37.70703125 C-19.38871858 49.66600709 -34.31883197 54.07167189 -50.6171875 55.58203125 C-51.41671888 58.86899358 -51.71377686 60.29226317 -50.6171875 63.58203125 C-33.67594986 62.81718982 -19.09610503 55.89323324 -6.2109375 45.2421875 C-3.6171875 43.58203125 -3.6171875 43.58203125 -1.5390625 43.625 C0.79023867 44.78491624 2.62677202 46.17235747 4.6328125 47.83203125 C11.32216531 53.34952663 18.00278096 57.19601539 26.2578125 59.83203125 C27.04140137 60.08871582 27.82499023 60.34540039 28.63232422 60.60986328 C34.23720674 62.38074174 39.48483076 63.39177377 45.3828125 63.58203125 C46.0428125 61.27203125 46.7028125 58.96203125 47.3828125 56.58203125 C45.52410136 54.72332011 42.25689679 55.13512632 39.7578125 54.89453125 C24.6794395 53.11409265 9.9421618 46.23607509 -0.27734375 34.8671875 C-2.49307706 32.74189229 -3.3134116 33.287421 -5.4296875 35.33984375 Z M-8.5546875 65.14453125 C-27.79624581 78.88850147 -51.85685551 79.97243406 -74.6171875 79.58203125 C-75.93665681 139.42407328 -75.93665681 139.42407328 -48.1796875 190.51953125 C-39.3721158 198.86354654 -29.24856639 204.8717273 -18.6171875 210.58203125 C-16.90015625 211.51015625 -16.90015625 211.51015625 -15.1484375 212.45703125 C-14.045 213.01390625 -12.9415625 213.57078125 -11.8046875 214.14453125 C-10.82886719 214.64082031 -9.85304688 215.13710937 -8.84765625 215.6484375 C-0.04330963 218.19286174 7.03418391 214.24268552 14.6953125 210.08203125 C15.71206055 209.53812744 16.72880859 208.99422363 17.77636719 208.43383789 C39.78754127 196.44264958 55.74702623 179.85126049 63.3828125 155.58203125 C64.21822505 152.66210373 64.95157086 149.72903959 65.6328125 146.76953125 C65.78395508 146.12024658 65.93509766 145.47096191 66.09082031 144.80200195 C69.30602962 129.55153115 69.73604133 113.97912834 70.0078125 98.45703125 C70.04613638 96.61196368 70.0851955 94.76691122 70.125 92.921875 C70.21936963 88.47538812 70.30394373 84.02881896 70.3828125 79.58203125 C68.47556396 79.59399536 68.47556396 79.59399536 66.52978516 79.60620117 C64.82714914 79.612655 63.12451236 79.61891068 61.421875 79.625 C60.17096069 79.63364075 60.17096069 79.63364075 58.89477539 79.64245605 C39.84452409 79.69334308 22.60786758 76.08619591 6.00195312 66.61694336 C-1.25451096 62.25816686 -1.25451096 62.25816686 -8.5546875 65.14453125 Z " fill="#FDFBFB" transform="translate(107.6171875,32.41796875)"/>
<path d="M0 0 C5.63049288 5.89053572 7.72644166 12.78975122 8.078125 20.81640625 C7.69168016 30.1820106 5.70626296 38.57792594 -0.0546875 46.03515625 C-0.60125 46.78023437 -1.1478125 47.5253125 -1.7109375 48.29296875 C-3.13771831 50.22450693 -4.5850037 52.13618337 -6.0546875 54.03515625 C-5.58417969 54.56882813 -5.11367188 55.1025 -4.62890625 55.65234375 C2.24857685 63.88254092 4.55531448 71.37800846 4.2265625 82.08984375 C3.28127067 91.98914989 -0.99460273 101.60206173 -8.3671875 108.41015625 C-18.41584238 116.22823059 -30.10973 117.34595354 -42.421875 117.30078125 C-44.15668625 117.30365143 -44.15668625 117.30365143 -45.92654419 117.30657959 C-48.35532857 117.30793376 -50.78412037 117.30429132 -53.21289062 117.29589844 C-56.93896542 117.28512944 -60.66456449 117.29585005 -64.390625 117.30859375 C-66.7552094 117.30727317 -69.1197935 117.30471287 -71.484375 117.30078125 C-72.59996796 117.30482971 -73.71556091 117.30887817 -74.86495972 117.31304932 C-76.41269577 117.30359283 -76.41269577 117.30359283 -77.99169922 117.29394531 C-79.35329666 117.29155853 -79.35329666 117.29155853 -80.74240112 117.28912354 C-83.0546875 117.03515625 -83.0546875 117.03515625 -86.0546875 115.03515625 C-86.23469286 111.94586191 -86.23384719 109.10825382 -86.0546875 106.03515625 C-86.00958605 105.23789501 -85.9644846 104.44063377 -85.91801643 103.6192131 C-85.74871817 101.0280628 -85.54653343 98.4411614 -85.33618164 95.85302734 C-85.25975937 94.87784653 -85.1833371 93.90266571 -85.104599 92.89793396 C-84.85315525 89.7012017 -84.59662746 86.50490114 -84.33984375 83.30859375 C-84.16263157 81.07380081 -83.98566916 78.83898805 -83.8089447 76.60415649 C-83.43873485 71.93221347 -83.06611032 67.26047144 -82.69165039 62.58886719 C-82.21248007 56.60957521 -81.73841129 50.62989241 -81.26603031 44.65006065 C-80.90142096 40.03964673 -80.53458028 35.42941253 -80.1670208 30.81923294 C-79.99142305 28.61452437 -79.81640536 26.40976952 -79.64198494 24.2049675 C-79.39771191 21.12263042 -79.15054848 18.04053843 -78.90258789 14.95849609 C-78.83137726 14.05337784 -78.76016663 13.14825958 -78.6867981 12.2157135 C-77.57857864 -1.44095261 -77.57857864 -1.44095261 -75.0546875 -3.96484375 C-73.09375 -4.43554688 -73.09375 -4.43554688 -70.6796875 -4.74609375 C-69.78596436 -4.8649292 -68.89224121 -4.98376465 -67.97143555 -5.10620117 C-67.00890869 -5.22455322 -66.04638184 -5.34290527 -65.0546875 -5.46484375 C-63.56932495 -5.65494019 -63.56932495 -5.65494019 -62.05395508 -5.84887695 C-60.02300634 -6.10622934 -57.99150145 -6.35922962 -55.95947266 -6.60791016 C-53.36823475 -6.92631576 -50.77985998 -7.26144606 -48.19140625 -7.6015625 C-31.15350789 -9.76656874 -14.06291359 -11.87030878 0 0 Z M-48.0546875 24.03515625 C-48.39317402 25.93007631 -48.72525661 27.82614091 -49.0546875 29.72265625 C-49.2403125 30.77839844 -49.4259375 31.83414063 -49.6171875 32.921875 C-50.00536824 35.68419687 -50.13728726 38.25257668 -50.0546875 41.03515625 C-42.63036658 39.87890955 -35.10444836 38.65674727 -30.0546875 32.66015625 C-28.88811161 29.59789454 -28.75911966 27.28640245 -29.0546875 24.03515625 C-33.33750703 19.75233672 -43.03833293 22.60021795 -48.0546875 24.03515625 Z M-51.0546875 70.03515625 C-51.3846875 75.31515625 -51.7146875 80.59515625 -52.0546875 86.03515625 C-47.36558334 87.59819097 -43.5164424 85.88115389 -39.0546875 84.03515625 C-35.03874236 80.93953187 -32.89678378 78.08773392 -32.0546875 73.03515625 C-32.72135417 70.03515625 -32.72135417 70.03515625 -35.0546875 68.03515625 C-40.78666928 67.35509062 -45.54636758 68.46135056 -51.0546875 70.03515625 Z " fill="#FEFDFD" transform="translate(571.0546875,90.96484375)"/>
<path d="M0 0 C1.26199219 -0.01224609 2.52398437 -0.02449219 3.82421875 -0.03710938 C5.02691406 -0.03904297 6.22960937 -0.04097656 7.46875 -0.04296875 C9.13067383 -0.04913208 9.13067383 -0.04913208 10.82617188 -0.05541992 C13.5 0.1875 13.5 0.1875 15.5 2.1875 C15.80857338 8.93628486 15.22110594 15.58825545 14.625 22.30859375 C14.44157419 24.47186916 14.25881851 26.63520148 14.07666016 28.79858398 C13.98185364 29.91562714 13.88704712 31.03267029 13.78936768 32.18356323 C11.80502908 55.12186277 11.80502908 55.12186277 11.125 78.125 C11.12371094 79.13296631 11.12242187 80.14093262 11.12109375 81.17944336 C11.2068933 86.9564855 11.2068933 86.9564855 13.5 92.1875 C17.53735005 94.20617502 21.59091199 93.48470185 25.75 92.125 C30.20777581 88.98429431 31.4052742 84.34322955 32.5 79.1875 C32.69111488 77.24540714 32.84109626 75.29910868 32.96484375 73.3515625 C33.04162354 72.15990479 33.11840332 70.96824707 33.19750977 69.74047852 C33.27670654 68.44424561 33.35590332 67.1480127 33.4375 65.8125 C33.52323678 64.45303609 33.60909554 63.09357986 33.69506836 61.73413086 C34.18933227 53.81341903 34.62933951 45.89035438 35.0390625 37.96484375 C35.105205 36.68722168 35.105205 36.68722168 35.17268372 35.38378906 C35.38813825 31.20028703 35.59874049 27.01660792 35.80249023 22.83251953 C35.88002581 21.28548078 35.95758026 19.73844297 36.03515625 18.19140625 C36.06739288 17.49981918 36.09962952 16.80823212 36.13284302 16.09568787 C36.80395987 2.88354013 36.80395987 2.88354013 39.5 0.1875 C42.17382812 -0.07128906 42.17382812 -0.07128906 45.53125 -0.078125 C46.73394531 -0.08070312 47.93664062 -0.08328125 49.17578125 -0.0859375 C50.43777344 -0.07820313 51.69976562 -0.07046875 53 -0.0625 C54.26199219 -0.07023437 55.52398437 -0.07796875 56.82421875 -0.0859375 C58.02691406 -0.08335938 59.22960937 -0.08078125 60.46875 -0.078125 C61.57669922 -0.07586914 62.68464844 -0.07361328 63.82617188 -0.07128906 C66.5 0.1875 66.5 0.1875 68.5 2.1875 C68.72387695 4.84350586 68.72387695 4.84350586 68.67578125 8.46484375 C68.66799149 9.15247299 68.66020172 9.84010223 68.6521759 10.54856873 C68.61611485 13.09534436 68.55936903 15.64116045 68.5 18.1875 C68.477099 19.23560852 68.454198 20.28371704 68.43060303 21.36358643 C68.26139328 28.83637358 68.04754085 36.30715656 67.81030273 43.77807617 C67.7283839 46.42765369 67.65189287 49.07740454 67.58081055 51.72729492 C66.35311971 97.39457194 66.35311971 97.39457194 50.25 114.9375 C46.18041555 118.7928958 41.66575356 121.09513988 36.5 123.1875 C35.71367187 123.50847656 34.92734375 123.82945312 34.1171875 124.16015625 C21.36204454 128.45851947 4.64012596 127.96080435 -7.5 122.1875 C-14.51767175 118.02747477 -18.60470751 111.00123928 -20.75 103.25 C-26.559826 75.07782489 -20.51610108 44.30210694 -17.40234375 16.0859375 C-17.32634445 15.39207947 -17.25034515 14.69822144 -17.17204285 13.9833374 C-16.95660739 12.05041616 -16.72853395 10.11891637 -16.5 8.1875 C-16.28645874 6.24157959 -16.28645874 6.24157959 -16.06860352 4.25634766 C-15.88096436 3.24362793 -15.6933252 2.2309082 -15.5 1.1875 C-11.0372169 -1.04389155 -4.90089668 0.00250301 0 0 Z M61.5 5.1875 C62.5 7.1875 62.5 7.1875 62.5 7.1875 Z " fill="#FEFDFC" transform="translate(412.5,81.8125)"/>
<path d="M0 0 C0.38647809 7.02480755 0.02198262 14.1047662 -0.375 21.125 C-0.44460938 22.36507812 -0.51421875 23.60515625 -0.5859375 24.8828125 C-1 28 -1 28 -3 31 C-5.6360903 31.53564392 -8.08480431 31.88601332 -10.75 32.125 C-11.8800647 32.24174072 -11.8800647 32.24174072 -13.03295898 32.36083984 C-20.00933457 33.06045745 -27.00163924 33.57854563 -34 34 C-34.33 35.65 -34.66 37.3 -35 39 C-34.49984375 38.82082031 -33.9996875 38.64164063 -33.484375 38.45703125 C-26.00268091 37.08068186 -15.13402373 38.8489417 -8.66015625 42.76171875 C-0.978703 48.49117917 4.10240925 56.03066668 6.64453125 65.3671875 C8.88435321 81.95663807 5.69531865 96.44530433 -4.44921875 109.92578125 C-16.69764422 123.8402394 -37.6710792 125.87902156 -55 127 C-59.3354927 127.16651961 -63.66371228 127.14013138 -68 127 C-70.51781754 121.69636193 -71.79890003 116.78803915 -72.6875 111 C-72.81705078 110.23171875 -72.94660156 109.4634375 -73.08007812 108.671875 C-73.81467494 104.10105039 -74.491662 99.62740709 -74 95 C-72.3984375 93.0625 -72.3984375 93.0625 -70 92 C-67.0390625 91.8125 -67.0390625 91.8125 -63.625 92 C-53.46748963 92.20103406 -41.80972317 91.25627822 -34 84 C-31.28902588 80.01825676 -30.26976074 76.79871513 -31 72 C-32.1786663 69.40087749 -32.1786663 69.40087749 -35 68 C-42.26801339 66.88087683 -49.01758039 68.58016199 -56.046875 70.3125 C-61.10657655 71.49041994 -64.24534996 72.00799045 -68.9375 69.3125 C-74.7134604 60.03595754 -70.00517575 43.90161389 -68.54638672 33.60498047 C-68.12312299 30.61172605 -67.71488462 27.61669441 -67.30859375 24.62109375 C-67.04254329 22.6977952 -66.77564616 20.77461354 -66.5078125 18.8515625 C-66.3868924 17.96602692 -66.26597229 17.08049133 -66.14138794 16.16812134 C-65.4433864 11.29019622 -64.47682351 6.70274744 -63 2 C-59.56390867 1.24872933 -56.24778885 0.80670355 -52.73828125 0.59521484 C-51.20143677 0.50039322 -51.20143677 0.50039322 -49.63354492 0.40365601 C-48.5376001 0.3400589 -47.44165527 0.27646179 -46.3125 0.2109375 C-45.17723877 0.14339264 -44.04197754 0.07584778 -42.87231445 0.0062561 C-40.47520588 -0.1350471 -38.07798511 -0.27445799 -35.68066406 -0.41210938 C-32.0132015 -0.62423642 -28.34648258 -0.84697939 -24.6796875 -1.0703125 C-22.34899618 -1.20637896 -20.01826805 -1.34181678 -17.6875 -1.4765625 C-16.04358276 -1.57803085 -16.04358276 -1.57803085 -14.36645508 -1.68154907 C-13.34189209 -1.73845917 -12.3173291 -1.79536926 -11.26171875 -1.85400391 C-9.91533325 -1.93275253 -9.91533325 -1.93275253 -8.54174805 -2.01309204 C-1.97929012 -1.97929012 -1.97929012 -1.97929012 0 0 Z " fill="#FDFDFD" transform="translate(712,81)"/>
<path d="M0 0 C0.11703894 6.86628437 -0.00703862 13.70638732 -0.375 20.5625 C-0.4212854 21.59793945 -0.4212854 21.59793945 -0.46850586 22.65429688 C-0.6821457 26.24664406 -0.95569113 27.9335367 -3 31 C-5.74975586 31.6159668 -5.74975586 31.6159668 -9.21484375 31.94921875 C-10.45814453 32.07490234 -11.70144531 32.20058594 -12.98242188 32.33007812 C-14.94018555 32.50700195 -14.94018555 32.50700195 -16.9375 32.6875 C-18.23880859 32.81705078 -19.54011719 32.94660156 -20.88085938 33.08007812 C-30.2796379 34 -30.2796379 34 -34 34 C-34.33 35.65 -34.66 37.3 -35 39 C-34.49984375 38.82082031 -33.9996875 38.64164063 -33.484375 38.45703125 C-25.99855681 37.07992319 -15.14878653 38.85450171 -8.6640625 42.75390625 C0.02315634 49.25912411 4.47325384 57.50170512 7 68 C8.1985214 82.9893001 5.91307902 96.91470321 -3.59375 109.03125 C-17.35718632 123.83343623 -38.23400423 126.11538818 -57.35986328 127.12451172 C-60.91277015 127.2253566 -64.4508743 127.18716093 -68 127 C-70.51781754 121.69636193 -71.79890003 116.78803915 -72.6875 111 C-72.81705078 110.23171875 -72.94660156 109.4634375 -73.08007812 108.671875 C-73.81702225 104.08644488 -74.31482514 99.65703604 -74 95 C-71.29331077 92.29331077 -68.669895 92.24556918 -65 92 C-63.45811203 92.0324608 -61.91641211 92.07479114 -60.375 92.125 C-51.32424616 92.1939844 -40.79864735 90.4335026 -34 84 C-31.58630546 80.05031803 -30.97347863 77.80890185 -31.125 73.1875 C-31.70069625 69.72609801 -31.70069625 69.72609801 -35 68 C-42.59660835 67.07152565 -49.6727387 68.36254581 -56.9921875 70.34375 C-61.5816369 71.34508442 -64.76411621 71.72541005 -68.875 69.3125 C-74.813853 60.0548762 -69.97508878 43.472974 -68.54638672 33.12280273 C-68.12274748 30.04614121 -67.71476228 26.9676835 -67.30859375 23.88867188 C-67.04258373 21.91654275 -66.77568827 19.94453281 -66.5078125 17.97265625 C-66.3868924 17.0600856 -66.26597229 16.14751495 -66.14138794 15.20729065 C-64.88276713 6.20069816 -64.88276713 6.20069816 -63 2 C-60.08137174 1.02712391 -57.85043023 0.76589202 -54.79760742 0.5793457 C-53.73607956 0.51290359 -52.6745517 0.44646149 -51.58085632 0.37800598 C-50.43397842 0.31127182 -49.28710052 0.24453766 -48.10546875 0.17578125 C-46.92535721 0.10586472 -45.74524567 0.03594818 -44.52937317 -0.03608704 C-42.03037779 -0.18206582 -39.5312417 -0.32565224 -37.03198242 -0.46704102 C-33.21261067 -0.68606005 -29.39450687 -0.92188281 -25.57617188 -1.15820312 C-23.14849723 -1.29791669 -20.72076428 -1.43662166 -18.29296875 -1.57421875 C-16.58176094 -1.68342903 -16.58176094 -1.68342903 -14.83598328 -1.79484558 C-9.44567198 -2.08165674 -5.02975869 -2.31376603 0 0 Z " fill="#FEFDFD" transform="translate(800,81)"/>
<path d="M0 0 C8.65828139 5.8831912 15.10982589 12.47473605 17.73828125 22.8359375 C19.17984317 32.3845011 18.59303575 42.38597345 15.1328125 51.44921875 C10.89970575 53.56577212 5.4134786 52.75804085 0.7565918 52.79931641 C-0.61597625 52.81589842 -1.98845715 52.84321912 -3.3605957 52.88134766 C-5.34013576 52.93605079 -7.32056561 52.95484322 -9.30078125 52.97265625 C-10.48728271 52.99247559 -11.67378418 53.01229492 -12.89624023 53.03271484 C-15.8671875 52.44921875 -15.8671875 52.44921875 -17.80029297 50.07324219 C-19.13121991 46.79983193 -18.74432593 45.6042918 -17.5546875 42.32421875 C-15.72448688 36.57551167 -15.55441256 31.43827957 -15.8671875 25.44921875 C-19.62107246 25.0127205 -21.33330141 25.0585704 -24.4296875 27.32421875 C-35.87958468 42.00357411 -39.05659008 62.84438216 -37.3828125 80.96484375 C-36.71027529 85.50956492 -35.7483507 89.25277778 -33.8671875 93.44921875 C-30.14363755 95.93158538 -27.18184866 96.20806617 -22.8671875 95.44921875 C-16.74807088 91.88325079 -13.61165571 87.69459487 -9.9921875 81.69921875 C-9.03706375 80.16238399 -8.08136569 78.62590596 -7.125 77.08984375 C-6.7139502 76.41469727 -6.30290039 75.73955078 -5.87939453 75.04394531 C-4.8671875 73.44921875 -4.8671875 73.44921875 -3.8671875 72.44921875 C-1.6953125 72.03125 -1.6953125 72.03125 1.1328125 72.44921875 C3.44359152 74.2878716 5.36142607 76.02367632 7.3828125 78.13671875 C7.92421875 78.66716797 8.465625 79.19761719 9.0234375 79.74414062 C11.25963497 82.02226679 12.91555409 83.96940778 14.23828125 86.890625 C14.0788549 90.75819007 12.22111057 93.52149628 10.1953125 96.69921875 C9.78144287 97.36308594 9.36757324 98.02695313 8.94116211 98.7109375 C0.95611183 111.24033775 -9.35924442 120.47423684 -23.7109375 125.03515625 C-34.90419159 127.18458548 -46.4638955 125.41912344 -55.92578125 119.015625 C-67.74780034 109.47713475 -72.87149132 96.16747808 -74.8671875 81.44921875 C-76.48547963 55.78235287 -70.02611988 32.05476696 -52.8671875 12.44921875 C-52.25101563 11.72605469 -51.63484375 11.00289062 -51 10.2578125 C-39.33657276 -2.49452393 -15.97213951 -8.15781319 0 0 Z " fill="#FDFDFC" transform="translate(284.8671875,82.55078125)"/>
<path d="M0 0 C1.20527344 0.00322266 2.41054688 0.00644531 3.65234375 0.00976562 C4.84988281 -0.00634766 6.04742187 -0.02246094 7.28125 -0.0390625 C8.43238281 -0.03970703 9.58351563 -0.04035156 10.76953125 -0.04101562 C11.8251123 -0.04399658 12.88069336 -0.04697754 13.96826172 -0.05004883 C17.25206666 0.38518518 18.606204 0.80590758 20.77734375 3.32226562 C21.22070312 6.32104492 21.22070312 6.32104492 21.12109375 10.20898438 C21.09819275 11.30565681 21.09819275 11.30565681 21.0748291 12.42448425 C21.00597832 15.0590087 20.89597017 17.68951169 20.77734375 20.32226562 C20.7309375 21.36690979 20.68453125 22.41155396 20.63671875 23.487854 C20.24089015 32.04007112 19.76365691 40.58729511 19.27734375 49.13476562 C19.06106282 52.96274461 18.84623711 56.79078279 18.63537598 60.61906433 C18.50509526 62.98229382 18.37176971 65.34535834 18.23474121 67.70820618 C17.83561525 74.92094894 17.70042011 82.09892186 17.77734375 89.32226562 C18.96811523 89.31179199 20.15888672 89.30131836 21.38574219 89.29052734 C25.80628449 89.25431006 30.22681368 89.23135881 34.64746094 89.21240234 C36.56024379 89.20234872 38.4730113 89.18870389 40.38574219 89.17138672 C43.13610627 89.1471104 45.88626703 89.13577612 48.63671875 89.12695312 C49.9181778 89.11146927 49.9181778 89.11146927 51.2255249 89.09567261 C52.02605286 89.09552155 52.82658081 89.09537048 53.65136719 89.09521484 C54.35308044 89.09077362 55.0547937 89.0863324 55.777771 89.08175659 C58.1160702 89.36300771 59.7400205 90.16941461 61.77734375 91.32226562 C61.87641633 95.5214187 61.94890548 99.71994815 61.99707031 103.91992188 C62.01715357 105.34777684 62.04442627 106.77554987 62.07910156 108.203125 C62.12777044 110.25866931 62.15034342 112.31312418 62.16796875 114.36914062 C62.19938965 116.22297363 62.19938965 116.22297363 62.23144531 118.11425781 C61.77734375 121.32226562 61.77734375 121.32226562 59.98217773 123.72094727 C56.71882838 126.0910401 53.48017447 125.95804003 49.58984375 126.00976562 C48.7697583 126.03683594 47.94967285 126.06390625 47.10473633 126.09179688 C45.30345311 126.15060883 43.50189859 126.20149896 41.70019531 126.24560547 C36.45308666 126.38322593 31.2093834 126.61043662 25.96484375 126.82226562 C24.89169922 126.86303223 23.81855469 126.90379883 22.71289062 126.94580078 C17.15987063 127.16102747 11.62931781 127.44285253 6.08984375 127.88476562 C1.42247683 128.23712872 -3.22999052 128.47238404 -7.91015625 128.57226562 C-9.04839844 128.59804687 -10.18664062 128.62382812 -11.359375 128.65039062 C-14.22265625 128.32226562 -14.22265625 128.32226562 -15.88882446 127.05989075 C-17.55104973 124.89445699 -17.5498628 123.89326429 -17.42724609 121.19213867 C-17.39654526 120.34912201 -17.36584442 119.50610535 -17.33421326 118.63754272 C-17.28450882 117.71236847 -17.23480438 116.78719421 -17.18359375 115.83398438 C-17.14311417 114.85160797 -17.10263458 113.86923157 -17.06092834 112.85708618 C-16.92161935 109.57379051 -16.75979862 106.29200697 -16.59765625 103.00976562 C-16.49495838 100.71123568 -16.39350054 98.41265004 -16.29321289 96.11401367 C-16.01574631 89.85775523 -15.71748702 83.60263741 -15.41522217 77.34753418 C-15.21619367 73.20950463 -15.02553435 69.07111049 -14.83642578 64.93261719 C-14.45091581 56.49968653 -14.05817594 48.06711492 -13.66015625 39.63476562 C-13.62822929 38.95600246 -13.59630234 38.2772393 -13.5634079 37.57790756 C-13.3491914 33.03021219 -13.12908486 28.4828298 -12.90625 23.93554688 C-12.85211441 22.7907486 -12.79797882 21.64595032 -12.74220276 20.46646118 C-11.7252796 0.07237827 -11.7252796 0.07237827 0 0 Z " fill="#FEFDFD" transform="translate(325.22265625,79.677734375)"/>
<path d="M0 0 C0.76892578 -0.01224609 1.53785156 -0.02449219 2.33007812 -0.03710938 C7.60758198 -0.05047014 12.11521664 0.72423011 17.1875 2.1875 C16.60097648 6.67743869 15.4231462 10.41293184 13.625 14.5625 C13.16996094 15.62210938 12.71492188 16.68171875 12.24609375 17.7734375 C11.89675781 18.57007813 11.54742187 19.36671875 11.1875 20.1875 C10.50945312 20.09210938 9.83140625 19.99671875 9.1328125 19.8984375 C-0.50765745 18.75012667 -9.61004047 19.56598679 -17.8125 25.1875 C-23.8901324 30.33660523 -26.8939415 37.55229843 -28.16015625 45.3203125 C-28.5411693 53.5038101 -25.58994381 61.2317769 -20.484375 67.5 C-17.81599899 70.19331411 -15.26406934 71.58498566 -11.8125 73.1875 C-10.925625 73.6 -10.03875 74.0125 -9.125 74.4375 C-0.17519943 76.46386994 8.14420889 75.70401008 16.1875 71.1875 C20.12613002 68.36848055 22.46945511 65.59835226 24.96484375 61.4609375 C25.64353516 60.34589844 26.32222656 59.23085937 27.02148438 58.08203125 C27.72286757 56.90898049 28.42403846 55.73580277 29.125 54.5625 C29.82141266 53.41224356 30.51867217 52.2624994 31.21679688 51.11328125 C33.21700477 47.81056831 35.20428793 44.50044034 37.1875 41.1875 C38.35539557 39.24214357 39.52335654 37.29682639 40.69140625 35.3515625 C41.52358429 33.96362967 42.35567795 32.57564621 43.1875 31.1875 C44.6725 31.6825 44.6725 31.6825 46.1875 32.1875 C50.597152 42.32734151 48.42663394 55.10061522 45.1875 65.1875 C40.03859104 77.88134486 30.60302605 86.68971574 18.1875 92.1875 C5.31214489 97.47931262 -6.77918605 97.08307815 -19.60546875 91.7578125 C-32.45257219 85.46726977 -40.69519005 76.17009374 -45.90234375 62.94921875 C-49.77866583 51.18715989 -48.66718858 38.4624424 -43.8125 27.1875 C-37.11593619 13.98520711 -27.18722622 6.76030259 -13.8125 1.1875 C-9.2782644 -0.1122644 -4.68274379 0.00386684 0 0 Z " fill="#FDFCFB" transform="translate(104.8125,119.8125)"/>
<path d="M0 0 C1.6030415 0.82211119 3.19515374 1.66578492 4.77734375 2.52734375 C6.4733412 3.39047369 8.17258151 4.24726109 9.875 5.09765625 C10.7014502 5.51176758 11.52790039 5.92587891 12.37939453 6.35253906 C17.30594709 8.69890886 22.41830828 10.17300583 27.71484375 11.46484375 C28.56304687 11.67625 29.41125 11.88765625 30.28515625 12.10546875 C37.15166706 13.57536403 44.08105563 13.85263595 51.07861328 14.1237793 C61.80196486 14.55196486 61.80196486 14.55196486 63.71484375 16.46484375 C65.14068321 49.4249466 62.87580868 87.54358861 40.46484375 113.58984375 C31.14814307 123.50156061 20.67951054 130.25658675 8.71484375 136.46484375 C7.10222656 137.31175781 7.10222656 137.31175781 5.45703125 138.17578125 C0.27845924 140.72979088 -2.5248505 141.98670231 -8.28515625 140.46484375 C-10.85989415 139.36778152 -13.30404628 138.24062625 -15.78515625 136.96484375 C-16.4807666 136.610271 -17.17637695 136.25569824 -17.89306641 135.89038086 C-39.94341748 124.43451484 -56.99058882 109.23114053 -64.91015625 85.02734375 C-69.45344178 70.09918863 -70.77329825 54.62877752 -71.47583008 39.10644531 C-71.60019604 36.40977249 -71.74757294 33.71494935 -71.89648438 31.01953125 C-71.9818168 29.29303485 -72.06585314 27.56647378 -72.1484375 25.83984375 C-72.19309647 25.03998047 -72.23775543 24.24011719 -72.2837677 23.41601562 C-72.44510211 19.50671156 -72.51365235 17.8075879 -70.28515625 14.46484375 C-68.07188994 14.42971254 -65.85724247 14.41580887 -63.64453125 14.4765625 C-44.50684643 14.40980313 -23.45135754 10.40792387 -7.38671875 -0.50390625 C-3.83503149 -1.6848199 -3.28629479 -1.44768336 0 0 Z M-13.72265625 7.21484375 C-30.77277589 16.04229314 -48.4529641 17.71560851 -67.28515625 19.46484375 C-67.59681341 52.33748155 -67.57500865 89.26046377 -43.28515625 114.46484375 C-35.03162274 121.841994 -25.81549314 127.42105667 -16.03271484 132.54003906 C-14.53269502 133.3338467 -13.05655364 134.1724904 -11.5859375 135.01953125 C-8.68562149 136.56839111 -6.52368337 137.69838792 -3.2097168 137.07348633 C18.16267393 129.39930472 37.96991198 116.4592161 48.03710938 95.55566406 C57.16958039 75.68184475 58.9175857 53.88539227 58.77734375 32.27734375 C58.77231338 30.93034023 58.76775322 29.58333486 58.76367188 28.23632812 C58.75199729 24.97911838 58.73562258 21.72200597 58.71484375 18.46484375 C57.40386719 18.47902344 56.09289062 18.49320313 54.7421875 18.5078125 C36.50721819 18.49000839 18.88263159 14.84725679 2.83935547 6.05615234 C-3.90378669 2.38208352 -7.3354505 3.77569571 -13.72265625 7.21484375 Z " fill="#FEF4F3" transform="translate(109.28515625,102.53515625)"/>
<path d="M0 0 C1 1 1 1 1.1328125 3.4140625 C1.11761425 9.66054393 0.97763955 15.88892835 0.625 22.125 C0.55539062 23.36507812 0.48578125 24.60515625 0.4140625 25.8828125 C0 29 0 29 -2 32 C-7.48488997 33.54702025 -13.3462544 33.09054041 -19 33 C-15.59648662 30.96780512 -12.6767073 30.63108961 -8.75 30.375 C-7.67234375 30.30023438 -6.5946875 30.22546875 -5.484375 30.1484375 C-4.25460937 30.07496094 -4.25460937 30.07496094 -3 30 C-2.06258092 24.72701769 -1.94434954 19.7091614 -2.0625 14.35546875 C-2 12 -2 12 -1 10 C-0.83330682 6.45828022 -0.83330682 6.45828022 -1 3 C-2.54950268 1.45049732 -4.09990594 1.78344807 -6.25390625 1.68359375 C-7.10791016 1.64169922 -7.96191406 1.59980469 -8.84179688 1.55664062 C-9.73962891 1.51732422 -10.63746094 1.47800781 -11.5625 1.4375 C-12.46419922 1.39431641 -13.36589844 1.35113281 -14.29492188 1.30664062 C-16.52978485 1.20021858 -18.76476308 1.09820012 -21 1 C-21 0.67 -21 0.34 -21 0 C-18.43788925 -0.19569589 -15.87567609 -0.38180612 -13.3125 -0.5625 C-12.59126953 -0.61857422 -11.87003906 -0.67464844 -11.12695312 -0.73242188 C-7.23808977 -0.99878238 -3.76374371 -1.08666405 0 0 Z " fill="#FEF0F0" transform="translate(711,80)"/>
<path d="M0 0 C3.66114989 3.66114989 3.18230225 8.60363994 3.25 13.5625 C3.20746023 20.28378328 2.40993719 26.68773332 0 33 C-4.23310675 35.11655337 -9.7193339 34.3088221 -14.3762207 34.35009766 C-15.74878875 34.36667967 -17.12126965 34.39400037 -18.4934082 34.43212891 C-20.47294826 34.48683204 -22.45337811 34.50562447 -24.43359375 34.5234375 C-25.62009521 34.54325684 -26.80659668 34.56307617 -28.02905273 34.58349609 C-31 34 -31 34 -32.96118164 31.61181641 C-34 29 -34 29 -33.1875 26.6875 C-32.795625 26.130625 -32.40375 25.57375 -32 25 C-32 26.98 -32 28.96 -32 31 C-26.96625886 32.67791371 -21.70709889 32.18456756 -16.4375 32.1875 C-15.27541016 32.19974609 -14.11332031 32.21199219 -12.91601562 32.22460938 C-11.80806641 32.22654297 -10.70011719 32.22847656 -9.55859375 32.23046875 C-8.54079834 32.23457764 -7.52300293 32.23868652 -6.47436523 32.24291992 C-3.82385961 32.24695012 -3.82385961 32.24695012 -2 30 C0.96997795 19.61870092 1.51345753 10.59420274 0 0 Z " fill="#FEEFEC" transform="translate(300,101)"/>
<path d="M0 0 C2.35248594 3.67400195 2.34742544 7.27152696 2.3125 11.5 C2.30686035 12.21051514 2.3012207 12.92103027 2.29541016 13.65307617 C2.05116022 24.40611902 -0.77016725 34.11982276 -7 43 C-9.19140625 44.80859375 -9.19140625 44.80859375 -11 46 C-11.33 45.34 -11.66 44.68 -12 44 C-11.34 44 -10.68 44 -10 44 C-9.34 42.35 -8.68 40.7 -8 39 C-7.34 39 -6.68 39 -6 39 C-5.86464844 38.43667969 -5.72929688 37.87335938 -5.58984375 37.29296875 C-4.98446528 34.93961005 -4.28364206 32.63285864 -3.5625 30.3125 C-3.03803099 28.54274004 -2.51713705 26.77191629 -2 25 C-1.77699219 24.26394531 -1.55398438 23.52789062 -1.32421875 22.76953125 C0.16094115 17.22291365 -0.10304013 12.38078213 -0.80859375 6.69921875 C-0.98932055 4.15060205 -0.7837994 2.40860983 0 0 Z " fill="#FEF2EE" transform="translate(805,145)"/>
<path d="M0 0 C0.33 0 0.66 0 1 0 C1.11703894 6.86628437 0.99296138 13.70638732 0.625 20.5625 C0.59414307 21.25279297 0.56328613 21.94308594 0.53149414 22.65429688 C0.3178543 26.24664406 0.04430887 27.9335367 -2 31 C-7.48488997 32.54702025 -13.3462544 32.09054041 -19 32 C-19 31.67 -19 31.34 -19 31 C-13.72 30.34 -8.44 29.68 -3 29 C-2.36462025 24.41114627 -1.89517052 20.72215862 -2.5625 16.125 C-3 13 -3 13 -1 10 C-0.79600471 7.74614216 -0.79600471 7.74614216 -0.9375 5.375 C-0.99174253 3.91752688 -1.02033542 2.45834036 -1 1 C-0.67 0.67 -0.34 0.34 0 0 Z " fill="#FFF0EF" transform="translate(799,81)"/>
<path d="M0 0 C23.00766939 -0.82555811 23.00766939 -0.82555811 31 4 C29.15625 5.5234375 29.15625 5.5234375 27 7 C24.5 6.625 24.5 6.625 22 6 C20.9171875 6.2784375 20.9171875 6.2784375 19.8125 6.5625 C19.214375 6.706875 18.61625 6.85125 18 7 C17.34 6.34 16.68 5.68 16 5 C16.66 4.01 17.32 3.02 18 2 C12.06 1.67 6.12 1.34 0 1 C0 0.67 0 0.34 0 0 Z " fill="#FBF3F1" transform="translate(256,80)"/>
<path d="M0 0 C0.99 0 1.98 0 3 0 C3 10.89 3 21.78 3 33 C2.01 33.495 2.01 33.495 1 34 C0.67 22.78 0.34 11.56 0 0 Z " fill="#FBFEFC" transform="translate(168,119)"/>
<path d="M0 0 C0 3.72913872 -0.75548689 4.2144927 -3.3125 6.8125 C-10.70898425 13.9214884 -21.53299748 20.12419638 -32.0625 20.1875 C-33.5165625 20.0946875 -33.5165625 20.0946875 -35 20 C-35 19.67 -35 19.34 -35 19 C-34.43152344 18.89042969 -33.86304687 18.78085938 -33.27734375 18.66796875 C-28.1992356 17.62521866 -23.71488106 16.2240005 -19 14 C-17.88625 13.484375 -16.7725 12.96875 -15.625 12.4375 C-12.8961979 11.26714206 -12.8961979 11.26714206 -12 9 C-11.0925 8.566875 -10.185 8.13375 -9.25 7.6875 C-5.78219762 5.8869103 -3.63198179 3.85758023 -1 1 C-0.67 0.67 -0.34 0.34 0 0 Z " fill="#FEF1EE" transform="translate(142,195)"/>
<path d="M0 0 C0.33 0 0.66 0 1 0 C1.01981934 0.76666992 1.03963867 1.53333984 1.06005859 2.32324219 C1.15535446 5.79917219 1.26501598 9.27450506 1.375 12.75 C1.42140625 14.55984375 1.42140625 14.55984375 1.46875 16.40625 C1.50742187 17.56640625 1.54609375 18.7265625 1.5859375 19.921875 C1.6173584 20.99018555 1.6487793 22.05849609 1.68115234 23.15917969 C1.99533039 25.95839546 2.45062993 27.66503384 4 30 C6.17208588 30.91160093 6.17208588 30.91160093 8.625 31.25 C9.44226563 31.39953125 10.25953125 31.5490625 11.1015625 31.703125 C11.72804688 31.80109375 12.35453125 31.8990625 13 32 C13 32.33 13 32.66 13 33 C11.60696395 33.13657216 10.20993879 33.23271149 8.8125 33.3125 C8.03519531 33.37050781 7.25789063 33.42851562 6.45703125 33.48828125 C2.56354913 32.71453679 1.28491771 31.21655375 -1 28 C-1.629099 24.52028444 -1.51690819 21.14823783 -1.375 17.625 C-1.36082031 16.70460937 -1.34664063 15.78421875 -1.33203125 14.8359375 C-1.22439114 9.81273241 -0.83245499 4.95378955 0 0 Z " fill="#FEF3F0" transform="translate(422,144)"/>
<path d="M0 0 C1.65 0 3.3 0 5 0 C-4.64475325 8.48156693 -21.83698379 8.23290882 -34 8 C-34 7.67 -34 7.34 -34 7 C-23.02702703 4.98198198 -23.02702703 4.98198198 -18.4375 5.0625 C-14.19272044 4.98532219 -10.59356985 3.89138768 -6.55078125 2.65625 C-4 2 -4 2 0 2 C0 1.34 0 0.68 0 0 Z " fill="#FEF2F0" transform="translate(690,199)"/>
<path d="M0 0 C0.74894531 0.09667969 1.49789063 0.19335938 2.26953125 0.29296875 C2.59953125 0.95296875 2.92953125 1.61296875 3.26953125 2.29296875 C1.26953125 4.29296875 1.26953125 4.29296875 -0.66796875 4.48046875 C-3.15313251 5.18096613 -3.15313251 5.18096613 -4.23046875 8.66796875 C-4.72546875 9.86421875 -5.22046875 11.06046875 -5.73046875 12.29296875 C-8.92401714 15.29296875 -8.92401714 15.29296875 -11.73046875 15.29296875 C-10.35241717 11.52538932 -8.64628583 8.31553311 -6.41796875 4.98046875 C-5.84433594 4.09746094 -5.27070313 3.21445313 -4.6796875 2.3046875 C-2.73046875 0.29296875 -2.73046875 0.29296875 0 0 Z " fill="#FDF4F0" transform="translate(283.73046875,154.70703125)"/>
<path d="M0 0 C0.99 0.33 1.98 0.66 3 1 C3.04946113 5.21751282 3.08574827 9.43487168 3.10986328 13.65258789 C3.119917 15.08718812 3.13356194 16.52176789 3.15087891 17.95629883 C3.17515549 20.01909438 3.18648919 22.08161885 3.1953125 24.14453125 C3.20578613 25.38565674 3.21625977 26.62678223 3.22705078 27.90551758 C3 31 3 31 1 34 C0.01 33.67 -0.98 33.34 -2 33 C-1.34 33 -0.68 33 0 33 C0.84046161 26.18625765 1.10840501 19.42038118 1.125 12.5625 C1.12951172 11.78148926 1.13402344 11.00047852 1.13867188 10.19580078 C1.12939803 6.62768898 0.96229703 3.43206532 0 0 Z " fill="#FEF0EE" transform="translate(384,170)"/>
<path d="M0 0 C0.33 0 0.66 0 1 0 C1.12812705 12.04394251 0.79553837 23.98168818 0 36 C-0.33 36 -0.66 36 -1 36 C-1.16808419 33.89594609 -1.33441948 31.79175242 -1.5 29.6875 C-1.5928125 28.51574219 -1.685625 27.34398437 -1.78125 26.13671875 C-2.09859482 21.58622066 -1.85295128 17.17391386 -1.5625 12.625 C-1.48128906 11.31789063 -1.40007812 10.01078125 -1.31640625 8.6640625 C-1.05937162 5.68753798 -0.66750822 2.90562403 0 0 Z " fill="#FEEFEE" transform="translate(344,101)"/>
<path d="M0 0 C0.99 0.33 1.98 0.66 3 1 C7.53178989 11.42069332 4.7850881 23.57249752 2 34 C1.67 34 1.34 34 1 34 C1.144375 32.9275 1.28875 31.855 1.4375 30.75 C2.58625606 21.31022194 3.21206195 12.47273032 2 3 C1.01 3 0.02 3 -1 3 C-0.67 2.01 -0.34 1.02 0 0 Z " fill="#FFEFE9" transform="translate(148,151)"/>
<path d="M0 0 C-9.02222664 6.01481776 -20.5314999 5.64409554 -31 6 C-27.74082178 3.82721452 -25.51430737 3.6337191 -21.6875 3.28125 C-14.42205986 2.52091324 -7.13759741 -0.18783151 0 0 Z " fill="#FEF2F1" transform="translate(778,201)"/>
<path d="M0 0 C3.3428945 6.19624378 4.03454796 13.10391399 5 20 C5.33 20.99 5.66 21.98 6 23 C9.3 23.33 12.6 23.66 16 24 C16 24.33 16 24.66 16 25 C12.37 25 8.74 25 5 25 C1.06198963 17.30297973 -0.20800807 8.60833414 0 0 Z " fill="#FEF0EF" transform="translate(727,183)"/>
<path d="M0 0 C1.821586 2.732379 2.37459716 3.9857414 3 7.0625 C3.16242187 7.84625 3.32484375 8.63 3.4921875 9.4375 C3.65976562 10.283125 3.82734375 11.12875 4 12 C4.18820312 12.928125 4.37640625 13.85625 4.5703125 14.8125 C5.05330325 17.2070457 5.52742639 19.60337668 6 22 C8.97 22.33 11.94 22.66 15 23 C15 23.33 15 23.66 15 24 C11.7 24 8.4 24 5 24 C1.25587519 16.51175038 -0.19907883 8.36131082 0 0 Z " fill="#FEF2F1" transform="translate(639,184)"/>
<path d="M0 0 C2.20266316 0.38787256 4.41224568 0.73709495 6.625 1.0625 C8.40777344 1.32740234 8.40777344 1.32740234 10.2265625 1.59765625 C11.59941406 1.79681641 11.59941406 1.79681641 13 2 C12.67 2.66 12.34 3.32 12 4 C5.73 3.34 -0.54 2.68 -7 2 C-7 1.34 -7 0.68 -7 0 C-2.25 -1.125 -2.25 -1.125 0 0 Z " fill="#FDFAFA" transform="translate(149,117)"/>
<path d="M0 0 C1.32 0 2.64 0 4 0 C4 0.66 4 1.32 4 2 C3.34 2 2.68 2 2 2 C1.80664062 3.21558594 1.61328125 4.43117188 1.4140625 5.68359375 C1.15150658 7.26830626 0.88846041 8.85293761 0.625 10.4375 C0.49867188 11.23994141 0.37234375 12.04238281 0.2421875 12.86914062 C-0.10482796 14.92520723 -0.54590428 16.96490131 -1 19 C-1.66 19.33 -2.32 19.66 -3 20 C-2.88543872 17.60325733 -2.75871281 15.20818782 -2.625 12.8125 C-2.5940625 12.13896484 -2.563125 11.46542969 -2.53125 10.77148438 C-2.29896078 6.80321025 -1.71612524 3.59270121 0 0 Z " fill="#FEF2E9" transform="translate(649,83)"/>
<path d="M0 0 C-3.20478536 2.13652357 -3.9147292 2.21273768 -7.5625 2.0625 C-10.91229862 1.8828768 -10.91229862 1.8828768 -14 3 C-15.4509942 3.01599436 -16.90308507 2.9658149 -18.3515625 2.87890625 C-19.20234375 2.83056641 -20.053125 2.78222656 -20.9296875 2.73242188 C-21.81914063 2.67634766 -22.70859375 2.62027344 -23.625 2.5625 C-24.5221875 2.51029297 -25.419375 2.45808594 -26.34375 2.40429688 C-28.56284012 2.2744565 -30.78149871 2.13948661 -33 2 C-33 1.67 -33 1.34 -33 1 C-21.98440762 0.34235269 -11.03913945 -0.16207546 0 0 Z " fill="#FFEEED" transform="translate(687,81)"/>
<path d="M0 0 C0.33 0.66 0.66 1.32 1 2 C-4.64524422 7.80205656 -4.64524422 7.80205656 -8 10 C-8.66 10 -9.32 10 -10 10 C-10 10.66 -10 11.32 -10 12 C-10.66 12 -11.32 12 -12 12 C-12 12.66 -12 13.32 -12 14 C-13.65 14 -15.3 14 -17 14 C-14.46798438 11.97256918 -11.93410864 9.94764255 -9.39453125 7.9296875 C-8.54246094 7.25164062 -7.69039062 6.57359375 -6.8125 5.875 C-5.95269531 5.19179687 -5.09289062 4.50859375 -4.20703125 3.8046875 C-1.97105373 2.03758139 -1.97105373 2.03758139 0 0 Z " fill="#FEF1EF" transform="translate(149,223)"/>
<path d="M0 0 C1.21171875 0.00322266 2.4234375 0.00644531 3.671875 0.00976562 C4.94289063 0.01814453 6.21390625 0.02652344 7.5234375 0.03515625 C8.8021875 0.03966797 10.0809375 0.04417969 11.3984375 0.04882812 C14.56515042 0.06064422 17.73177106 0.0771181 20.8984375 0.09765625 C20.8984375 0.42765625 20.8984375 0.75765625 20.8984375 1.09765625 C12.3184375 1.09765625 3.7384375 1.09765625 -5.1015625 1.09765625 C-5.7615625 2.74765625 -6.4215625 4.39765625 -7.1015625 6.09765625 C-7.4315625 6.09765625 -7.7615625 6.09765625 -8.1015625 6.09765625 C-8.1015625 4.44765625 -8.1015625 2.79765625 -8.1015625 1.09765625 C-5.33538687 -0.28543156 -3.0913825 -0.01444571 0 0 Z " fill="#FEF2EE" transform="translate(405.1015625,81.90234375)"/>
<path d="M0 0 C3.36370321 1.39187719 5.21906331 2.79431396 7 6 C7.375 9.0625 7.375 9.0625 7 12 C5.5 13.875 5.5 13.875 4 15 C4.04125 13.7625 4.0825 12.525 4.125 11.25 C4.125 7.99716438 3.95704844 5.71812283 2 3 C1.34 2.67 0.68 2.34 0 2 C0 1.34 0 0.68 0 0 Z " fill="#FEF3EE" transform="translate(173,65)"/>
<path d="M0 0 C0.33 0 0.66 0 1 0 C1.06058594 0.75925781 1.12117187 1.51851562 1.18359375 2.30078125 C1.26738281 3.29464844 1.35117187 4.28851563 1.4375 5.3125 C1.51871094 6.29863281 1.59992187 7.28476563 1.68359375 8.30078125 C1.91812559 11.09375599 1.91812559 11.09375599 3 14 C3.66 14 4.32 14 5 14 C5.33 14.66 5.66 15.32 6 16 C8.52733235 16.65555119 8.52733235 16.65555119 11 17 C11 17.33 11 17.66 11 18 C7.26408298 18.43440896 5.40085216 18.23528279 2.125 16.3125 C-1.1789229 11.16226724 -0.39240655 5.95585939 0 0 Z " fill="#FEEFEB" transform="translate(729,134)"/>
<path d="M0 0 C0 5.61 0 11.22 0 17 C-0.33 17 -0.66 17 -1 17 C-1.33 12.05 -1.66 7.1 -2 2 C-4.64 2 -7.28 2 -10 2 C-5.91140426 -0.7257305 -4.85772241 -1.2144306 0 0 Z " fill="#FEEAEC" transform="translate(194,93)"/>
<path d="M0 0 C0.33 0 0.66 0 1 0 C1.22114415 2.79119779 1.42743301 5.5821212 1.625 8.375 C1.68945312 9.1690625 1.75390625 9.963125 1.8203125 10.78125 C1.96058587 12.85028224 1.98758237 14.92625536 2 17 C1.34 17.66 0.68 18.32 0 19 C-1 18 -1 18 -1.1328125 16.25 C-1.11374984 10.75995455 -0.69169796 5.44712142 0 0 Z " fill="#FFEFEC" transform="translate(486,188)"/>
<path d="M0 0 C3.6575751 0.4691786 7.32141865 0.7512703 11 1 C11 1.33 11 1.66 11 2 C3.64657821 2.20177072 -2.94887561 2.21211746 -10 0 C-6.12811248 -2.68053751 -4.25724154 -1.47068344 0 0 Z " fill="#FEF1EE" transform="translate(247,206)"/>
<path d="M0 0 C0.66 0.99 1.32 1.98 2 3 C-0.20803678 7.41607356 -2.63395181 9.68332137 -7 12 C-9.19140625 11.6015625 -9.19140625 11.6015625 -11 11 C-10.18595703 10.56300781 -10.18595703 10.56300781 -9.35546875 10.1171875 C-4.57697518 7.37923983 -1.99471649 5.36080058 0 0 Z " fill="#FEF3F0" transform="translate(769,159)"/>
<path d="M0 0 C0.33 0 0.66 0 1 0 C1.29599372 8.2056037 0.43794854 15.92437827 -1 24 C-1.33 24 -1.66 24 -2 24 C-2.02685412 21.68756208 -2.04632841 19.3750373 -2.0625 17.0625 C-2.07410156 15.77472656 -2.08570313 14.48695313 -2.09765625 13.16015625 C-2 10 -2 10 -1 9 C-0.76807135 7.48530552 -0.58784762 5.96245438 -0.4375 4.4375 C-0.35371094 3.61121094 -0.26992187 2.78492188 -0.18359375 1.93359375 C-0.12300781 1.29550781 -0.06242188 0.65742188 0 0 Z " fill="#FEF0EF" transform="translate(191,152)"/>
<path d="M0 0 C6.45892714 -0.40368295 11.06108578 0.4084738 17 3 C17 3.33 17 3.66 17 4 C11.08507728 3.54775239 5.64800112 2.8417395 0 1 C0 0.67 0 0.34 0 0 Z " fill="#FEF2EF" transform="translate(131,107)"/>
<path d="M0 0 C0.33 0 0.66 0 1 0 C1.181179 5.25419113 0.89518635 9.02513582 -1 14 C-1 14.66 -1 15.32 -1 16 C-1.99 16 -2.98 16 -4 16 C-2.68 10.72 -1.36 5.44 0 0 Z " fill="#FFF3F0" transform="translate(172,180)"/>
<path d="M0 0 C0.66 0.33 1.32 0.66 2 1 C3.09506492 4.28519475 3.09960608 6.73663415 3.0625 10.1875 C3.05347656 11.27417969 3.04445313 12.36085937 3.03515625 13.48046875 C3.02355469 14.31191406 3.01195312 15.14335937 3 16 C2.01 16 1.02 16 0 16 C0.09539063 15.25234375 0.19078125 14.5046875 0.2890625 13.734375 C0.39992188 12.74953125 0.51078125 11.7646875 0.625 10.75 C0.74101563 9.77546875 0.85703125 8.8009375 0.9765625 7.796875 C1.00112537 4.86570607 0.5312717 3.45471036 -1 1 C-0.67 0.67 -0.34 0.34 0 0 Z " fill="#FEF2EF" transform="translate(680,148)"/>
<path d="M0 0 C0 3.51663514 -0.67787284 4.31847023 -2.75 7.0625 C-3.26046875 7.75472656 -3.7709375 8.44695312 -4.296875 9.16015625 C-6.07828178 11.08456587 -7.59957707 11.99286603 -10 13 C-8.56501627 9.79111679 -6.78256013 7.42193016 -4.4375 4.8125 C-3.81746094 4.11769531 -3.19742188 3.42289062 -2.55859375 2.70703125 C-1.72141231 1.79011824 -0.8779528 0.8779528 0 0 Z " fill="#FEF3EF" transform="translate(236,91)"/>
<path d="M0 0 C0.69921875 1.73828125 0.69921875 1.73828125 1 4 C-0.29296875 6.10546875 -0.29296875 6.10546875 -2.1875 8.1875 C-3.10595703 9.22970703 -3.10595703 9.22970703 -4.04296875 10.29296875 C-6.08714076 12.076009 -7.35111359 12.60648472 -10 13 C-9.61328125 12.56429687 -9.2265625 12.12859375 -8.828125 11.6796875 C-5.56015499 7.94255348 -2.65859411 4.1923984 0 0 Z " fill="#FEF2ED" transform="translate(131,179)"/>
<path d="M0 0 C1.33998047 0.06960937 1.33998047 0.06960937 2.70703125 0.140625 C3.60808594 0.17671875 4.50914063 0.2128125 5.4375 0.25 C6.46810547 0.31960937 6.46810547 0.31960937 7.51953125 0.390625 C7.84953125 1.050625 8.17953125 1.710625 8.51953125 2.390625 C7.50632812 2.48150391 7.50632812 2.48150391 6.47265625 2.57421875 C5.580625 2.65800781 4.68859375 2.74179687 3.76953125 2.828125 C2.8878125 2.90933594 2.00609375 2.99054687 1.09765625 3.07421875 C-1.17397327 3.35300965 -3.27898698 3.77853077 -5.48046875 4.390625 C-3.17521711 0.50003419 -3.17521711 0.50003419 0 0 Z " fill="#FEEEEB" transform="translate(102.48046875,32.609375)"/>
<path d="M0 0 C0.98484375 0.01804688 1.9696875 0.03609375 2.984375 0.0546875 C4.10585937 0.08949219 4.10585937 0.08949219 5.25 0.125 C5.25 0.455 5.25 0.785 5.25 1.125 C-1.68 2.61 -1.68 2.61 -8.75 4.125 C-9.08 3.465 -9.41 2.805 -9.75 2.125 C-6.40060119 0.09941119 -3.88037449 -0.09238987 0 0 Z " fill="#FDF4EC" transform="translate(98.75,137.875)"/>
<path d="M0 0 C1.13199353 0.9080162 2.25532363 1.82683826 3.375 2.75 C4.00148438 3.26046875 4.62796875 3.7709375 5.2734375 4.296875 C7.08312318 6.08199481 8.00117455 7.67949644 9 10 C7.0625 9.6875 7.0625 9.6875 5 9 C4.67 8.01 4.34 7.02 4 6 C3.319375 5.319375 2.63875 4.63875 1.9375 3.9375 C1.298125 3.298125 0.65875 2.65875 0 2 C0 1.34 0 0.68 0 0 Z " fill="#FEF0EE" transform="translate(289,86)"/>
<path d="M0 0 C0.66 0.33 1.32 0.66 2 1 C-1.56430755 4.14985318 -4.40693504 6.5140084 -9 8 C-8.34 7.01 -7.68 6.02 -7 5 C-6.34 5 -5.68 5 -5 5 C-4.67 4.01 -4.34 3.02 -4 2 C-2.0625 0.75 -2.0625 0.75 0 0 Z " fill="#FEF2F0" transform="translate(704,191)"/>
<path d="M0 0 C0.66 0.66 1.32 1.32 2 2 C1.38125 2.721875 0.7625 3.44375 0.125 4.1875 C-1.83666353 6.78381938 -2.95316 8.94671666 -4 12 C-4.66 12 -5.32 12 -6 12 C-4.68139111 7.38486888 -2.78644563 3.90102388 0 0 Z " fill="#FEEFEC" transform="translate(225,104)"/>
<path d="M0 0 C0.68359375 1.734375 0.68359375 1.734375 1 4 C-0.21484375 6.140625 -0.21484375 6.140625 -1.9375 8.25 C-2.50339844 8.95640625 -3.06929687 9.6628125 -3.65234375 10.390625 C-4.31943359 11.18726563 -4.31943359 11.18726563 -5 12 C-5.33 11.34 -5.66 10.68 -6 10 C-4.78515625 7.6171875 -4.78515625 7.6171875 -3.0625 4.875 C-2.21365234 3.50988281 -2.21365234 3.50988281 -1.34765625 2.1171875 C-0.90292969 1.41851562 -0.45820313 0.71984375 0 0 Z " fill="#FFF2EC" transform="translate(145,156)"/>
<path d="M0 0 C-3.16240582 2.10827055 -4.50657469 2.33817465 -8.1875 2.625 C-9.53908203 2.73714844 -9.53908203 2.73714844 -10.91796875 2.8515625 C-11.94857422 2.92503906 -11.94857422 2.92503906 -13 3 C-13 2.34 -13 1.68 -13 1 C-11.39796533 0.63631108 -9.79325797 0.28438048 -8.1875 -0.0625 C-7.29417969 -0.25972656 -6.40085937 -0.45695313 -5.48046875 -0.66015625 C-3 -1 -3 -1 0 0 Z " fill="#FEF2EC" transform="translate(758,172)"/>
<path d="M0 0 C3.79588866 0.54226981 5.47211993 2.20127563 8 5 C5.36 4.34 2.72 3.68 0 3 C0 2.01 0 1.02 0 0 Z " fill="#FEF3ED" transform="translate(699,123)"/>
<path d="M0 0 C0.66 0.33 1.32 0.66 2 1 C-0.97 5.95 -0.97 5.95 -4 11 C-4.66 10.01 -5.32 9.02 -6 8 C-4.02 5.36 -2.04 2.72 0 0 Z " fill="#FEF1ED" transform="translate(258,109)"/>
<path d="M0 0 C-3.21182149 1.90608098 -5.53882603 2.22266247 -9.25 2.125 C-10.14203125 2.10695313 -11.0340625 2.08890625 -11.953125 2.0703125 C-12.96632812 2.03550781 -12.96632812 2.03550781 -14 2 C-14 1.67 -14 1.34 -14 1 C-4.58997722 -1.48063781 -4.58997722 -1.48063781 0 0 Z " fill="#FEEFED" transform="translate(71,86)"/>
<path d="M0 0 C7.50769231 0.49230769 7.50769231 0.49230769 10 3.0625 C10.33 3.701875 10.66 4.34125 11 5 C9.53932801 4.54917531 8.08151968 4.08906463 6.625 3.625 C5.81289062 3.36976563 5.00078125 3.11453125 4.1640625 2.8515625 C2 2 2 2 0 0 Z " fill="#FEEEEF" transform="translate(90,260)"/>
<path d="M0 0 C3.34373475 0.55728913 6.03312999 1.35173889 9 3 C9 3.66 9 4.32 9 5 C5.22454612 3.90931332 2.52956528 3.0916909 0 0 Z " fill="#FEF3EC" transform="translate(71,250)"/>
<path d="M0 0 C0.66 0 1.32 0 2 0 C1.67 0.99 1.34 1.98 1 3 C0.67 2.01 0.34 1.02 0 0 Z " fill="#FFEDD5" transform="translate(814,235)"/>
</svg>
